<svg xmlns="http://www.w3.org/2000/svg" xmlns:xlink="http://www.w3.org/1999/xlink" width="236.25" height="70" viewBox="0 0 236.25 70">
  <defs>
    <clipPath id="clip-path">
      <rect width="236.25" height="70" fill="none"/>
    </clipPath>
    <linearGradient id="linear-gradient" x1="0.915" y1="6.614" x2="-0.383" y2="5.945" gradientUnits="objectBoundingBox">
      <stop offset="0" stop-color="#00a0ff"/>
      <stop offset="0.007" stop-color="#00a1ff"/>
      <stop offset="0.26" stop-color="#00beff"/>
      <stop offset="0.512" stop-color="#00d2ff"/>
      <stop offset="0.76" stop-color="#00dfff"/>
      <stop offset="1" stop-color="#00e3ff"/>
    </linearGradient>
    <linearGradient id="linear-gradient-2" x1="1.076" y1="17.098" x2="-1.305" y2="17.098" gradientUnits="objectBoundingBox">
      <stop offset="0" stop-color="#ffe000"/>
      <stop offset="0.409" stop-color="#ffbd00"/>
      <stop offset="0.775" stop-color="orange"/>
      <stop offset="1" stop-color="#ff9c00"/>
    </linearGradient>
    <linearGradient id="linear-gradient-3" x1="0.862" y1="10.863" x2="-0.501" y2="9.093" gradientUnits="objectBoundingBox">
      <stop offset="0" stop-color="#ff3a44"/>
      <stop offset="1" stop-color="#c31162"/>
    </linearGradient>
    <linearGradient id="linear-gradient-4" x1="-0.188" y1="13.583" x2="0.421" y2="12.793" gradientUnits="objectBoundingBox">
      <stop offset="0" stop-color="#32a071"/>
      <stop offset="0.068" stop-color="#2da771"/>
      <stop offset="0.476" stop-color="#15cf74"/>
      <stop offset="0.801" stop-color="#06e775"/>
      <stop offset="1" stop-color="#00f076"/>
    </linearGradient>
  </defs>
  <g id="Google_Play" data-name="Google Play" clip-path="url(#clip-path)">
    <rect id="Rectangle_88" data-name="Rectangle 88" width="236.25" height="70" rx="5"/>
    <g id="Group_78" data-name="Group 78" transform="translate(72.366 12.016)">
      <path id="Path_145" data-name="Path 145" d="M61.967,22.776a4.74,4.74,0,0,1-1.3,3.505,5.089,5.089,0,0,1-3.857,1.554,5.409,5.409,0,0,1-5.455-5.485,5.409,5.409,0,0,1,5.455-5.485,5.436,5.436,0,0,1,2.156.439A4.319,4.319,0,0,1,60.6,18.479l-.922.922a3.551,3.551,0,0,0-2.875-1.244,4.06,4.06,0,0,0-4.078,4.193,4.13,4.13,0,0,0,7.011,3.022,3.311,3.311,0,0,0,.88-2.128H56.807v-1.26H61.9A4.474,4.474,0,0,1,61.967,22.776Z" transform="translate(-51.352 -16.866)" fill="#fff" stroke="#fff" stroke-miterlimit="10" stroke-width="0.2"/>
      <path id="Path_146" data-name="Path 146" d="M64.655,18.29H59.872v3.33h4.312v1.26H59.872v3.33h4.783V27.5h-6.13V17h6.13Z" transform="translate(-45.972 -16.765)" fill="#fff" stroke="#fff" stroke-miterlimit="10" stroke-width="0.2"/>
      <path id="Path_147" data-name="Path 147" d="M67.114,27.5H65.763V18.29H62.832V17h7.215v1.29H67.114Z" transform="translate(-42.742 -16.765)" fill="#fff" stroke="#fff" stroke-miterlimit="10" stroke-width="0.2"/>
      <path id="Path_148" data-name="Path 148" d="M69.938,27.5V17h1.347V27.5Z" transform="translate(-37.412 -16.765)" fill="#fff" stroke="#fff" stroke-miterlimit="10" stroke-width="0.2"/>
      <path id="Path_149" data-name="Path 149" d="M75.963,27.5H74.614V18.29H71.681V17H78.9v1.29H75.963Z" transform="translate(-36.105 -16.765)" fill="#fff" stroke="#fff" stroke-miterlimit="10" stroke-width="0.2"/>
      <path id="Path_150" data-name="Path 150" d="M87.571,26.244a5.452,5.452,0,0,1-7.7,0,5.369,5.369,0,0,1-1.547-3.894,5.369,5.369,0,0,1,1.547-3.894,5.435,5.435,0,0,1,7.691.007,5.368,5.368,0,0,1,1.554,3.887A5.376,5.376,0,0,1,87.571,26.244Zm-6.7-.88a4.039,4.039,0,0,0,5.705,0,4.11,4.11,0,0,0,1.167-3.014,4.11,4.11,0,0,0-1.167-3.014,4.039,4.039,0,0,0-5.705,0A4.115,4.115,0,0,0,79.7,22.351,4.115,4.115,0,0,0,80.869,25.364Z" transform="translate(-31.122 -16.866)" fill="#fff" stroke="#fff" stroke-miterlimit="10" stroke-width="0.2"/>
      <path id="Path_151" data-name="Path 151" d="M85.575,27.5V17h1.643l5.1,8.167h.058l-.058-2.023V17h1.349V27.5H92.264l-5.339-8.564h-.058l.058,2.025V27.5Z" transform="translate(-25.685 -16.765)" fill="#fff" stroke="#fff" stroke-miterlimit="10" stroke-width="0.2"/>
    </g>
    <path id="Path_152" data-name="Path 152" d="M98.457,35.281a7.443,7.443,0,1,0,7.471,7.443A7.336,7.336,0,0,0,98.457,35.281Zm0,11.952a4.306,4.306,0,0,1-4.2-4.51,4.212,4.212,0,1,1,8.4,0A4.3,4.3,0,0,1,98.457,47.233Zm-16.3-11.952a7.443,7.443,0,1,0,7.471,7.443A7.336,7.336,0,0,0,82.159,35.281Zm0,11.952a4.306,4.306,0,0,1-4.2-4.51,4.212,4.212,0,1,1,8.4,0A4.306,4.306,0,0,1,82.159,47.233ZM62.771,37.564v3.157h7.555A6.589,6.589,0,0,1,68.607,44.7a7.736,7.736,0,0,1-5.836,2.312,8.4,8.4,0,0,1,0-16.8,8.05,8.05,0,0,1,5.695,2.256l2.228-2.228a11.017,11.017,0,0,0-7.922-3.187,11.561,11.561,0,1,0,0,23.119,10.563,10.563,0,0,0,8.062-3.243,10.433,10.433,0,0,0,2.735-7.387,10.2,10.2,0,0,0-.17-1.972Zm79.289,2.452a6.918,6.918,0,0,0-6.372-4.735,7.072,7.072,0,0,0-7.019,7.443,7.283,7.283,0,0,0,7.387,7.443,7.4,7.4,0,0,0,6.2-3.3l-2.538-1.692a4.252,4.252,0,0,1-3.664,2.058,3.788,3.788,0,0,1-3.61-2.254l9.952-4.118ZM131.909,42.5a4.083,4.083,0,0,1,3.89-4.342,2.879,2.879,0,0,1,2.763,1.579Zm-8.09,7.217h3.269V27.836h-3.269Zm-5.358-12.771h-.112a5.159,5.159,0,0,0-3.918-1.662,7.449,7.449,0,0,0,0,14.885,5.071,5.071,0,0,0,3.918-1.692h.112v1.073c0,2.847-1.521,4.37-3.974,4.37a4.119,4.119,0,0,1-3.75-2.651l-2.847,1.185a7.092,7.092,0,0,0,6.6,4.4c3.834,0,7.077-2.256,7.077-7.753V35.73h-3.1Zm-3.748,10.29a4.27,4.27,0,0,1-4.144-4.482,4.305,4.305,0,0,1,4.144-4.54c2.228,0,3.974,1.918,3.974,4.54C118.687,45.345,116.94,47.233,114.712,47.233Zm42.667-19.4h-7.824V49.715h3.264V41.427h4.561a6.8,6.8,0,1,0,0-13.589Zm.084,10.544h-4.645v-7.5h4.645a3.75,3.75,0,1,1,0,7.5Zm20.181-3.141a6.134,6.134,0,0,0-5.828,3.348l2.9,1.211a3.093,3.093,0,0,1,2.984-1.6c1.689,0,3.405,1.013,3.433,2.816v.224a7.223,7.223,0,0,0-3.405-.843c-3.124,0-6.305,1.717-6.305,4.924,0,2.928,2.562,4.814,5.432,4.814a4.608,4.608,0,0,0,4.167-2.14h.112v1.689h3.152V41.29C184.285,37.407,181.387,35.24,177.644,35.24ZM177.25,47.23c-1.071,0-2.562-.534-2.562-1.857,0-1.689,1.857-2.336,3.462-2.336a5.825,5.825,0,0,1,2.984.732A3.958,3.958,0,0,1,177.25,47.23Zm18.518-11.512L192.026,45.2h-.112l-3.885-9.485h-3.518l5.826,13.256-3.322,7.374h3.405L199.4,35.718Zm-29.412,14h3.266V27.838h-3.266Z" transform="translate(20.781 2.785)" fill="#fff"/>
    <g id="Group_80" data-name="Group 80" transform="translate(17.453 12.496)">
      <path id="Path_153" data-name="Path 153" d="M20.781,17.593a3.512,3.512,0,0,0-.808,2.459v38.7a3.509,3.509,0,0,0,.808,2.459l.13.126L42.592,39.658v-.511L20.911,17.465Z" transform="translate(-19.973 -16.897)" fill="url(#linear-gradient)"/>
      <path id="Path_154" data-name="Path 154" d="M40.125,40.7,32.9,33.464v-.511l7.229-7.229.163.094,8.563,4.865c2.445,1.389,2.445,3.663,0,5.052L40.29,40.6Z" transform="translate(-10.279 -10.703)" fill="url(#linear-gradient-2)"/>
      <path id="Path_155" data-name="Path 155" d="M49.637,37.393,42.245,30l-21.81,21.81c.807.854,2.139.959,3.638.107L49.637,37.393" transform="translate(-19.626 -7.495)" fill="url(#linear-gradient-3)"/>
      <path id="Path_156" data-name="Path 156" d="M49.637,32.254,24.073,17.729c-1.5-.852-2.831-.747-3.638.107l21.81,21.81Z" transform="translate(-19.626 -17.14)" fill="url(#linear-gradient-4)"/>
      <g id="Group_79" data-name="Group 79" transform="translate(0 29.735)">
        <path id="Path_157" data-name="Path 157" d="M49.475,34.132l-25.4,14.432c-1.421.808-2.691.754-3.507.019h0l-.131.13h0l.13.128,0,0c.815.735,2.086.789,3.507-.019L49.637,34.295Z" transform="translate(-19.626 -34.132)" opacity="0.2"/>
        <path id="Path_158" data-name="Path 158" d="M20.781,43.372a3.509,3.509,0,0,1-.808-2.459v.257a3.5,3.5,0,0,0,.808,2.457l.131-.13Z" transform="translate(-19.973 -29.046)" opacity="0.12"/>
      </g>
      <path id="Path_159" data-name="Path 159" d="M45.754,32.272,37.029,37.23l.163.163,8.563-4.865A3.072,3.072,0,0,0,47.589,30h0A3.256,3.256,0,0,1,45.754,32.272Z" transform="translate(-7.181 -7.495)" opacity="0.12"/>
      <path id="Path_160" data-name="Path 160" d="M24.42,17.985l34.127,19.39a3.256,3.256,0,0,1,1.834,2.271h0a3.067,3.067,0,0,0-1.834-2.527L24.42,17.729c-2.446-1.389-4.447-.235-4.447,2.566v.257C19.973,17.75,21.973,16.6,24.42,17.985Z" transform="translate(-19.973 -17.14)" fill="#fff" opacity="0.25"/>
    </g>
  </g>
</svg>
