<svg xmlns="http://www.w3.org/2000/svg" width="20.692" height="23" viewBox="0 0 20.692 23">
  <path id="Icon_simple-tiktok" data-name="Icon simple-tiktok" d="M13.236.019C14.536,0,15.826.01,17.116,0a5.868,5.868,0,0,0,1.737,4,7.127,7.127,0,0,0,4.208,1.715V9.574a10.936,10.936,0,0,1-4.168-.93,12.379,12.379,0,0,1-1.608-.891c-.01,2.8.01,5.6-.02,8.385a7.157,7.157,0,0,1-1.34,3.776A7.465,7.465,0,0,1,10.06,22.99,7.438,7.438,0,0,1,6.012,22a7.21,7.21,0,0,1-3.622-5.472c-.02-.479-.03-.958-.01-1.428A7.116,7.116,0,0,1,4.94,10.35a7.572,7.572,0,0,1,6.1-1.648c.02,1.418-.04,2.837-.04,4.255a3.58,3.58,0,0,0-3,.355,3.347,3.347,0,0,0-1.35,1.677,3.677,3.677,0,0,0-.139,1.543,3.35,3.35,0,0,0,3.473,2.75,3.357,3.357,0,0,0,2.749-1.543,2.167,2.167,0,0,0,.407-1.016c.1-1.715.06-3.421.069-5.137.01-3.862-.01-7.714.02-11.567Z" transform="translate(-2.369)" fill="#fff"/>
</svg>
